<svg width="44" height="43" viewBox="0 0 44 43" fill="none" xmlns="http://www.w3.org/2000/svg">
<g clip-path="url(#clip0_58097_63)">
<g clip-path="url(#clip1_58097_63)">
<path d="M32.7491 12.2417C31.7915 12.9172 30.7312 13.4338 29.6091 13.7717C29.0068 13.0792 28.2064 12.5884 27.3161 12.3656C26.4258 12.1429 25.4886 12.1989 24.6312 12.5262C23.7738 12.8534 23.0375 13.4361 22.5221 14.1954C22.0066 14.9548 21.7368 15.8541 21.7491 16.7717V17.7717C19.9917 17.8173 18.2504 17.4275 16.6801 16.6372C15.1098 15.8468 13.7594 14.6804 12.7491 13.2417C12.7491 13.2417 8.7491 22.2417 17.7491 26.2417C15.6896 27.6397 13.2363 28.3406 10.7491 28.2417C19.7491 33.2417 30.7491 28.2417 30.7491 16.7417C30.7482 16.4632 30.7214 16.1853 30.6691 15.9117C31.6897 14.9052 32.4099 13.6344 32.7491 12.2417Z" stroke="white" stroke-width="4" stroke-linecap="round" stroke-linejoin="round"/>
</g>
</g>
<defs>
<clipPath id="clip0_58097_63">
<rect x="1.7491" y="1.24172" width="40" height="40" rx="20" fill="white"/>
</clipPath>
<clipPath id="clip1_58097_63">
<rect width="24" height="24" fill="white" transform="translate(9.7491 9.24172)"/>
</clipPath>
</defs>
</svg>
