<svg width="41" height="41" viewBox="0 0 41 41" fill="none" xmlns="http://www.w3.org/2000/svg">
<g clip-path="url(#clip0_58040_24)">
<g clip-path="url(#clip1_58040_24)">
<path d="M31.4908 11.3431C30.5338 12.0193 29.4739 12.5368 28.352 12.8755C27.7492 12.1835 26.9485 11.6933 26.058 11.4712C25.1675 11.2492 24.2303 11.3059 23.3732 11.6338C22.516 11.9618 21.7802 12.545 21.2653 13.3047C20.7505 14.0645 20.4813 14.964 20.4944 15.8816L20.4951 16.8816C18.7378 16.9285 16.9961 16.5401 15.4253 15.751C13.8544 14.9618 12.5031 13.7965 11.4916 12.3586C11.4916 12.3586 7.49861 21.3617 16.5017 25.3547C14.4433 26.7543 11.9905 27.4571 9.50327 27.3601C18.5071 32.3532 29.5033 27.3446 29.4943 15.8446C29.4932 15.5661 29.4662 15.2883 29.4137 15.0147C30.4335 14.0074 31.1528 12.7361 31.4908 11.3431Z" stroke="#FEE9E7" stroke-width="4" stroke-linecap="round" stroke-linejoin="round"/>
</g>
</g>
<defs>
<clipPath id="clip0_58040_24">
<rect x="0.4823" y="0.367188" width="40" height="40" rx="20" transform="rotate(-0.0444551 0.4823 0.367188)" fill="white"/>
</clipPath>
<clipPath id="clip1_58040_24">
<rect width="24" height="24" fill="white" transform="translate(8.48853 8.36096) rotate(-0.0444551)"/>
</clipPath>
</defs>
</svg>
