<svg width="46" height="52" viewBox="0 0 46 52" fill="none" xmlns="http://www.w3.org/2000/svg">
<g clip-path="url(#clip0_58094_2421)">
<g clip-path="url(#clip1_58094_2421)">
<path d="M19.7992 32.8584C14.7992 34.3584 14.7992 30.3584 12.7992 29.8584M26.7992 35.8584V31.9884C26.8367 31.5116 26.7723 31.0322 26.6102 30.5822C26.4481 30.1322 26.1921 29.7219 25.8592 29.3784C28.9992 29.0284 32.2992 27.8384 32.2992 22.3784C32.2989 20.9823 31.7619 19.6396 30.7992 18.6284C31.255 17.4069 31.2228 16.0568 30.7092 14.8584C30.7092 14.8584 29.5292 14.5084 26.7992 16.3384C24.5072 15.7173 22.0912 15.7173 19.7992 16.3384C17.0692 14.5084 15.8892 14.8584 15.8892 14.8584C15.3755 16.0568 15.3433 17.4069 15.7992 18.6284C14.8293 19.6471 14.2917 21.0019 14.2992 22.4084C14.2992 27.8284 17.5992 29.0184 20.7392 29.4084C20.4102 29.7484 20.1564 30.1538 19.9945 30.5984C19.8325 31.0429 19.766 31.5165 19.7992 31.9884V35.8584" stroke="#FEE9E7" stroke-width="4" stroke-linecap="round" stroke-linejoin="round"/>
</g>
</g>
<defs>
<clipPath id="clip0_58094_2421">
<rect x="2.79917" y="5.85844" width="40" height="40" rx="20" fill="white"/>
</clipPath>
<clipPath id="clip1_58094_2421">
<rect width="24" height="24" fill="white" transform="translate(10.7992 13.8584)"/>
</clipPath>
</defs>
</svg>
