<svg width="44" height="41" viewBox="0 0 44 41" fill="none" xmlns="http://www.w3.org/2000/svg">
<g clip-path="url(#clip0_58040_25)">
<g clip-path="url(#clip1_58040_25)">
<path d="M18.6902 27.8187C13.6914 29.3226 13.6883 25.3226 11.6879 24.8242M25.6925 30.8133L25.6895 26.9433C25.7267 26.4664 25.6619 25.9871 25.4994 25.5372C25.337 25.0873 25.0807 24.6772 24.7475 24.334C27.8872 23.9816 31.1863 22.789 31.1821 17.329C31.1807 15.9329 30.6426 14.5906 29.6791 13.5802C30.1341 12.3583 30.1008 11.0082 29.5862 9.81026C29.5862 9.81026 28.406 9.46118 25.6774 11.2933C23.3849 10.6739 20.9689 10.6758 18.6774 11.2987C15.946 9.47084 14.7662 9.82176 14.7662 9.82176C14.2535 11.0205 14.2224 12.3707 14.6792 13.5918C13.7101 14.6113 13.1735 15.9665 13.1821 17.373C13.1863 22.793 16.4872 23.9804 19.6275 24.368C19.2988 24.7082 19.0454 25.1138 18.8837 25.5585C18.7221 26.0031 18.656 26.4768 18.6895 26.9487L18.6925 30.8187" stroke="#FEE9E7" stroke-width="4" stroke-linecap="round" stroke-linejoin="round"/>
</g>
</g>
<defs>
<clipPath id="clip0_58040_25">
<rect x="1.66925" y="0.831909" width="40" height="40" rx="20" transform="rotate(-0.0444551 1.66925 0.831909)" fill="white"/>
</clipPath>
<clipPath id="clip1_58040_25">
<rect width="24" height="24" fill="white" transform="translate(9.67548 8.82568) rotate(-0.0444551)"/>
</clipPath>
</defs>
</svg>
