<svg width="42" height="41" viewBox="0 0 42 41" fill="none" xmlns="http://www.w3.org/2000/svg">
<g clip-path="url(#clip0_58040_24)">
<g clip-path="url(#clip1_58040_24)">
<path d="M31.6856 11.333C30.7285 12.0092 29.6686 12.5266 28.5468 12.8654C27.944 12.1734 27.1432 11.6832 26.2527 11.4611C25.3623 11.239 24.4251 11.2958 23.5679 11.6237C22.7108 11.9516 21.975 12.5349 21.4601 13.2946C20.9452 14.0543 20.6761 14.9538 20.6891 15.8715L20.6899 16.8715C18.9326 16.9184 17.1909 16.53 15.62 15.7409C14.0492 14.9517 12.6978 13.7863 11.6864 12.3485C11.6864 12.3485 7.69338 21.3516 16.6965 25.3446C14.6381 26.7441 12.1853 27.447 9.69803 27.35C18.7019 32.343 29.698 27.3345 29.6891 15.8345C29.688 15.556 29.661 15.2781 29.6085 15.0046C30.6283 13.9973 31.3475 12.7259 31.6856 11.333Z" stroke="#FEE9E7" stroke-width="4" stroke-linecap="round" stroke-linejoin="round"/>
</g>
</g>
<defs>
<clipPath id="clip0_58040_24">
<rect x="0.677063" y="0.357056" width="40" height="40" rx="20" transform="rotate(-0.0444551 0.677063 0.357056)" fill="white"/>
</clipPath>
<clipPath id="clip1_58040_24">
<rect width="24" height="24" fill="white" transform="translate(8.68329 8.35083) rotate(-0.0444551)"/>
</clipPath>
</defs>
</svg>
