<svg width="43" height="41" viewBox="0 0 43 41" fill="none" xmlns="http://www.w3.org/2000/svg">
<g clip-path="url(#clip0_58040_25)">
<g clip-path="url(#clip1_58040_25)">
<path d="M18.4954 27.8289C13.4966 29.3327 13.4935 25.3327 11.4931 24.8343M25.4978 30.8234L25.4948 26.9534C25.5319 26.4766 25.4671 25.9972 25.3047 25.5474C25.1423 25.0975 24.8859 24.6873 24.5527 24.3442C27.6925 23.9917 30.9915 22.7992 30.9873 17.3392C30.986 15.943 30.4479 14.6008 29.4844 13.5903C29.9393 12.3685 29.906 11.0183 29.3915 9.82039C29.3915 9.82039 28.2112 9.47131 25.4826 11.3034C23.1901 10.684 20.7741 10.6859 18.4826 11.3089C15.7512 9.48098 14.5715 9.83189 14.5715 9.83189C14.0588 11.0306 14.0276 12.3808 14.4844 13.602C13.5153 14.6214 12.9788 15.9766 12.9873 17.3831C12.9915 22.8031 16.2925 23.9906 19.4328 24.3781C19.104 24.7183 18.8506 25.124 18.689 25.5686C18.5274 26.0133 18.4612 26.4869 18.4948 26.9589L18.4978 30.8289" stroke="#FEE9E7" stroke-width="4" stroke-linecap="round" stroke-linejoin="round"/>
</g>
</g>
<defs>
<clipPath id="clip0_58040_25">
<rect x="1.47449" y="0.842041" width="40" height="40" rx="20" transform="rotate(-0.0444551 1.47449 0.842041)" fill="white"/>
</clipPath>
<clipPath id="clip1_58040_25">
<rect width="24" height="24" fill="white" transform="translate(9.48071 8.83582) rotate(-0.0444551)"/>
</clipPath>
</defs>
</svg>
