<svg width="39" height="39" viewBox="0 0 39 39" fill="none" xmlns="http://www.w3.org/2000/svg">
<path d="M26.0036 12.9935C28.5898 12.9935 31.0701 14.0203 32.8989 15.8478C34.7276 17.6754 35.755 20.1541 35.755 22.7387V34.108H29.2541V22.7387C29.2541 21.8772 28.9116 21.0509 28.302 20.4417C27.6925 19.8325 26.8657 19.4903 26.0036 19.4903C25.1415 19.4903 24.3148 19.8325 23.7052 20.4417C23.0956 21.0509 22.7532 21.8772 22.7532 22.7387V34.108H16.2523V22.7387C16.2523 20.1541 17.2796 17.6754 19.1084 15.8478C20.9371 14.0203 23.4174 12.9935 26.0036 12.9935Z" stroke="white" stroke-width="4" stroke-linecap="round" stroke-linejoin="round"/>
<path d="M9.75136 14.6177H3.25045V34.108H9.75136V14.6177Z" stroke="white" stroke-width="4" stroke-linecap="round" stroke-linejoin="round"/>
<path d="M6.5009 9.74515C8.29608 9.74515 9.75136 8.2908 9.75136 6.49677C9.75136 4.70273 8.29608 3.24838 6.5009 3.24838C4.70573 3.24838 3.25045 4.70273 3.25045 6.49677C3.25045 8.2908 4.70573 9.74515 6.5009 9.74515Z" stroke="white" stroke-width="4" stroke-linecap="round" stroke-linejoin="round"/>
</svg>
